<?xml version="1.0" encoding="UTF-8"?>
<svg id="Layer_1" data-name="Layer 1" xmlns="http://www.w3.org/2000/svg" viewBox="0 0 65 59">
  <defs>
    <style>
      .cls-1 {
        fill: #d61e3f;
      }

      .cls-2 {
        fill: #fff;
      }

      .cls-3 {
        fill: #fdb93f;
      }
    </style>
  </defs>
  <circle class="cls-1" cx="29.5" cy="29.5" r="29.5"/>
  <circle class="cls-3" cx="36.48" cy="29.5" r="26"/>
  <path class="cls-2" d="M53.84,24.48c-1.8-4.57-5.75-7.27-10.09-7.27-6.65,0-11.16,5.69-11.16,12.18s4.62,12.4,11.22,12.4c4.23,0,7.84-2.37,10.03-7.05h11.16c-2.59,10.03-11.22,16.4-21.08,16.4-5.81,0-11.27-2.03-15.56-6.26-4.51-4.4-6.43-9.7-6.43-16.01,0-11.05,9.53-21.03,21.48-21.03,5.75,0,10.37,1.58,14.54,5.13,3.95,3.38,6.31,7.22,7.05,11.5h-11.16Z"/>
</svg>